<svg width="17" height="17" viewBox="0 0 17 17" fill="none" xmlns="http://www.w3.org/2000/svg">
<g id="icon-google">
<path id="Vector" d="M15.299 8.895C15.3036 8.44699 15.2559 7.99998 15.157 7.563H8.80701V10.035H12.533C12.466 10.466 12.311 10.879 12.079 11.25C11.847 11.621 11.541 11.942 11.18 12.194V12.281L13.21 13.814H13.344C14.0102 13.1842 14.536 12.4209 14.887 11.574C15.237 10.729 15.403 9.821 15.373 8.909" fill="#4285F4"/>
<path id="Vector_2" d="M8.80701 15.415C10.4495 15.4624 12.0491 14.8861 13.284 13.802L11.154 12.17C10.4586 12.6277 9.63917 12.8603 8.80701 12.836C7.95494 12.8349 7.12442 12.5682 6.43101 12.073C5.74243 11.5818 5.22711 10.8852 4.95901 10.083H4.87801L2.79401 11.67V11.743C3.35786 12.8457 4.21629 13.7706 5.27401 14.415C6.33846 15.0642 7.56019 15.41 8.80701 15.415Z" fill="#34A853"/>
<path id="Vector_3" d="M4.958 10.08C4.81421 9.65048 4.74323 9.19993 4.748 8.747C4.74448 8.29504 4.813 7.8454 4.951 7.415V7.34L2.834 5.72H2.767C2.292 6.64851 2.04431 7.67655 2.04431 8.7195C2.04431 9.76245 2.292 10.7905 2.767 11.719L4.958 10.08Z" fill="#FBBC05"/>
<path id="Vector_4" d="M8.80703 4.663C9.7742 4.64744 10.7106 5.00276 11.424 5.656L13.331 3.816C12.0996 2.68202 10.4809 2.0623 8.80703 2.084C7.55579 2.08415 6.32857 2.42762 5.25903 3.077C4.19583 3.72186 3.33299 4.64979 2.76703 5.757L4.95203 7.416C5.21803 6.616 5.73403 5.918 6.42703 5.424C7.12195 4.92918 7.95394 4.6625 8.80703 4.663Z" fill="#EB4335"/>
</g>
</svg>
